<svg height="215.57733" viewBox="0 0 346.52533 215.57733" width="346.52533" xml:space="preserve" xmlns="http://www.w3.org/2000/svg" xmlns:xlink="http://www.w3.org/1999/xlink"><clipPath id="a"><path d="m0 161.683h259.894v-161.683h-259.894z"/></clipPath><clipPath id="b"><path d="m189.797 46.4722h10.045v-10.0107h-10.045z"/></clipPath><clipPath id="c"><path d="m73.2544 33.3912h31.7846v-30.13485h-31.7846z"/></clipPath><clipPath id="d"><path d="m103.566 128.571h10.269v-9.147h-10.269z"/></clipPath><clipPath id="e"><path d="m180.202 113.274h5.548v-10.31h-5.548z"/></clipPath><clipPath id="f"><path d="m201.997 128.635h13.905v-13.392h-13.905z"/></clipPath><clipPath id="g"><path d="m0 161.683h259.894v-161.683h-259.894z"/></clipPath><clipPath id="h"><path d="m0 161.683h259.894v-161.683h-259.894z"/></clipPath><clipPath id="i"><path d="m0 161.683h259.894v-161.683h-259.894z"/></clipPath><clipPath id="j"><path d="m0 161.683h259.894v-161.683h-259.894z"/></clipPath><clipPath id="k"><path d="m0 161.683h259.894v-161.683h-259.894z"/></clipPath><clipPath id="l"><path d="m0 161.683h259.894v-161.683h-259.894z"/></clipPath><clipPath id="m"><path d="m0 161.683h259.894v-161.683h-259.894z"/></clipPath><clipPath id="n"><path d="m0 161.683h259.894v-161.683h-259.894z"/></clipPath><clipPath id="o"><path d="m0 161.683h259.894v-161.683h-259.894z"/></clipPath><clipPath id="p"><path d="m0 161.683h259.894v-161.683h-259.894z"/></clipPath><clipPath id="q"><path d="m0 161.683h259.894v-161.683h-259.894z"/></clipPath><clipPath id="r"><path d="m0 161.683h259.894v-161.683h-259.894z"/></clipPath><clipPath id="s"><path d="m0 161.683h259.894v-161.683h-259.894z"/></clipPath><clipPath id="t"><path d="m0 161.683h259.894v-161.683h-259.894z"/></clipPath><clipPath id="u"><path d="m0 161.683h259.894v-161.683h-259.894z"/></clipPath><clipPath id="v"><path d="m0 161.683h259.894v-161.683h-259.894z"/></clipPath><clipPath id="w"><path d="m0 161.683h259.894v-161.683h-259.894z"/></clipPath><clipPath id="x"><path d="m0 161.683h259.894v-161.683h-259.894z"/></clipPath><clipPath id="y"><path d="m0 161.683h259.894v-161.683h-259.894z"/></clipPath><clipPath id="z"><path d="m0 161.683h259.894v-161.683h-259.894z"/></clipPath><clipPath id="A"><path d="m0 161.683h259.894v-161.683h-259.894z"/></clipPath><clipPath id="B"><path d="m0 161.683h259.894v-161.683h-259.894z"/></clipPath><clipPath id="C"><path d="m0 161.683h259.894v-161.683h-259.894z"/></clipPath><clipPath id="D"><path d="m0 161.683h259.894v-161.683h-259.894z"/></clipPath><clipPath id="E"><path d="m0 161.683h259.894v-161.683h-259.894z"/></clipPath><clipPath id="F"><path d="m0 161.683h259.894v-161.683h-259.894z"/></clipPath><clipPath id="G"><path d="m0 161.683h259.894v-161.683h-259.894z"/></clipPath><clipPath id="H"><path d="m0 161.683h259.894v-161.683h-259.894z"/></clipPath><clipPath id="I"><path d="m0 161.683h259.894v-161.683h-259.894z"/></clipPath><clipPath id="J"><path d="m0 161.683h259.894v-161.683h-259.894z"/></clipPath><clipPath id="K"><path d="m0 161.683h259.894v-161.683h-259.894z"/></clipPath><clipPath id="L"><path d="m0 161.683h259.894v-161.683h-259.894z"/></clipPath><clipPath id="M"><path d="m0 161.683h259.894v-161.683h-259.894z"/></clipPath><clipPath id="N"><path d="m0 161.683h259.894v-161.683h-259.894z"/></clipPath><clipPath id="O"><path d="m0 161.683h259.894v-161.683h-259.894z"/></clipPath><clipPath id="P"><path d="m0 161.683h259.894v-161.683h-259.894z"/></clipPath><clipPath id="Q"><path d="m0 161.683h259.894v-161.683h-259.894z"/></clipPath><clipPath id="R"><path d="m0 161.683h259.894v-161.683h-259.894z"/></clipPath><clipPath id="S"><path d="m0 161.683h259.894v-161.683h-259.894z"/></clipPath><clipPath id="T"><path d="m0 161.683h259.894v-161.683h-259.894z"/></clipPath><clipPath id="U"><path d="m0 161.683h259.894v-161.683h-259.894z"/></clipPath><clipPath id="V"><path d="m0 161.683h259.894v-161.683h-259.894z"/></clipPath><clipPath id="W"><path d="m0 161.683h259.894v-161.683h-259.894z"/></clipPath><clipPath id="X"><path d="m0 161.683h259.894v-161.683h-259.894z"/></clipPath><clipPath id="Y"><path d="m0 0h259.894v161.683h-259.894z"/></clipPath><clipPath id="Z"><path d="m-9.79115 169.409h279.47615v-171.0969h-279.47615z"/></clipPath><clipPath id="aa"><path d="m-9.291-1.188h278.476v170.098h-278.476z"/></clipPath><clipPath id="ab"><path d="m0 161.683h259.894v-161.683h-259.894z"/></clipPath><g transform="matrix(1.3333333 0 0 -1.3333333 0 215.57733)"><path d="m0 0h259.894v161.683h-259.894z" fill="#d9e9e7"/><g clip-path="url(#a)"><g clip-path="url(#b)" opacity=".149994"><path d="m0 0 5.811 3.251 4.234-6.797-.523-1.457-.768-.781-.769-.788-1.906-.15-.492-.038-1.126.561z" fill="#006a62" transform="translate(189.7969 43.2212)"/></g><g clip-path="url(#c)" opacity=".149994"><path d="m0 0 5.687 2.869 9.244 7.1-5.537 10.226-7.656-.067-1.174 1.24-8.273 8.767-9.145-8.665z" fill="#006a62" transform="translate(90.1084 3.2563)"/></g><g clip-path="url(#d)" opacity=".149994"><path d="m0 0-3.485-3.471 8.245-5.675 2.024 1.606z" fill="#006a62" transform="translate(107.0513 128.5708)"/></g><g clip-path="url(#e)" opacity=".149994"><path d="m0 0 5.212-5.489-5.547-4.821 1.162 2.317.336 1.196.187 1.341-.112 1.42-.338 1.383z" fill="#006a62" transform="translate(180.5371 113.2739)"/></g><g clip-path="url(#f)" opacity=".149994"><path d="m0 0 4.363-4.439 1.048-.923 5.383 6.281 1.359 1.446-1.666 1.406-5.534 4.259-6.705-6.356z" fill="#006a62" transform="translate(203.749 120.605)"/></g></g><g clip-path="url(#g)"><path d="m0 0 .866 18.234 1.063 12.107.838 5.866 2.376 10.317 3.597 10.28 7.678 24.855 7.437 21.27 1.663 5.108" style="fill:none;stroke:#b3b3b3;stroke-width:1.92;stroke-linecap:round;stroke-linejoin:round;stroke-miterlimit:10" transform="translate(6.541 75.3511)"/></g><path d="m0 0 .864 4.305 1.017 7.653" style="fill:none;stroke:#b3b3b3;stroke-width:1.92;stroke-linecap:round;stroke-linejoin:round;stroke-miterlimit:10" transform="translate(23.4951 142.1909)"/><g style="fill:none;stroke:#b3b3b3;stroke-width:1.92;stroke-linecap:round;stroke-linejoin:round;stroke-miterlimit:10;clip-path:url(#h)"><path d="m0 0 .422 4.775 1.199 17.447.722 5.496" transform="translate(25.376 154.1489)"/><path d="m0 0-2.862-7.553-1.68-5.257-1.928-6.991" transform="translate(.6323 164.563)"/><path d="m0 0-17.293 21.081-8.575 11.022-7.798 10.835-3.829 6.016-2.348 4.708-2.571 4.82-5.982 13.414-1.984 5.679-1.845 5.307-2.124 10.088-.223 6.987" transform="translate(71.3428 -24.3443)"/><path d="m0 0 .022-7.839-.444-6.465-3.169-15.182-2.401-11.83-3.357-16.016-4.559-20.315-1.198-9.798-.962-8.844-.238-5.736.238-10.993.481-9.084 1.439-7.644 5.757-17.211" transform="translate(12.8769 205.2583)"/></g><path d="m0 0 4.053-.561 1.481-.56 2.767-1.457" style="fill:none;stroke:#b3b3b3;stroke-width:2.4;stroke-linecap:round;stroke-linejoin:round;stroke-miterlimit:10" transform="translate(72.8657 125.0845)"/><g clip-path="url(#i)"><path d="m0 0-15.149-7.1-6.177-7.996-18.271-21.546-16.051-18.773-16.63-19.692" style="fill:none;stroke:#b3b3b3;stroke-width:2.4;stroke-linecap:round;stroke-linejoin:round;stroke-miterlimit:10" transform="translate(154.9546 214.7275)"/></g><path d="m0 0-7.267-4.26-6.819-4.558-9.587-6.128-8.525-4.559" style="fill:none;stroke:#b3b3b3;stroke-width:2.4;stroke-linecap:round;stroke-linejoin:round;stroke-miterlimit:10" transform="translate(82.6763 139.6206)"/><path d="m0 0 5.758.956 7.675 1.913 7.999 2.018 9.391 3.848 5.749 2.941 1.842.946.515.261 12.672 5.892 1.386.647 3.857.859" style="fill:none;stroke:#b3b3b3;stroke-width:2.4;stroke-linecap:round;stroke-linejoin:round;stroke-miterlimit:10" transform="translate(16.0215 104.8032)"/><path d="m0 0-4.318-1.671" style="fill:none;stroke:#b3b3b3;stroke-width:2.4;stroke-linecap:round;stroke-linejoin:round;stroke-miterlimit:10" transform="translate(16.0215 104.8032)"/><g clip-path="url(#j)"><path d="m0 0-19.635-6.353" style="fill:none;stroke:#b3b3b3;stroke-width:2.4;stroke-linecap:round;stroke-linejoin:round;stroke-miterlimit:10" transform="translate(11.7031 103.1323)"/></g><path d="m0 0 .106 3.467 1.509 8.968 5.859 24.953" style="fill:none;stroke:#b3b3b3;stroke-width:2.4;stroke-linecap:round;stroke-linejoin:round;stroke-miterlimit:10" transform="translate(16.0215 104.8032)"/><g style="fill:none;stroke:#b3b3b3;stroke-width:2.4;stroke-linecap:round;stroke-linejoin:round;stroke-miterlimit:10;clip-path:url(#k)"><path d="m0 0-.09-2.287.196-4.97.643-6.576 1.062-5.418 1.481-6.965 5.786-18.966 2.543-7.137 3.214-6.127 2.991-6.689 4.053-8.145 6.177-9.117 5.115-7.547 12.158-12.966 9.587-10.387 18.335-20.961 20.264-21.671" transform="translate(-12.7666 95.7231)"/><path d="m0 0 6.4 8.107 9.811 12.855 9.391 14.236 4.044 6.353.993 1.274 1.559 2.089 8.606 10.698 6.962 7.387 2.544 3.064 4.427 6.155" transform="translate(99.083 124.3755)"/><path d="m0 0-3.709.729-8.944 6.725-4.053 2.541-4.5 5.006-4.667 7.398-16.854 23.951-6.652 8.892-4.025 5.38-18.112 22.494" transform="translate(113.2451 -48.2681)"/></g><path d="m0 0-11.783 12.625" style="fill:none;stroke:#b3b3b3;stroke-width:2.4;stroke-linecap:round;stroke-linejoin:round;stroke-miterlimit:10" transform="translate(41.7295 34.8481)"/><path d="m0 0-.643 7.847-.106 21.343" style="fill:none;stroke:#b3b3b3;stroke-width:2.4;stroke-linecap:round;stroke-linejoin:round;stroke-miterlimit:10" transform="translate(16.7705 75.6128)"/><path d="m0 0-2.723 2.918-1.705 2.13-1.481 2.989-2.571 5.156-.643 2.429-4.053 12.518" style="fill:none;stroke:#b3b3b3;stroke-width:2.4;stroke-linecap:round;stroke-linejoin:round;stroke-miterlimit:10" transform="translate(29.9463 47.4731)"/><path d="m0 0 5.758-1.121 1.509-.149h2.348l2.543.56 5.758 2.579" style="fill:none;stroke:#b3b3b3;stroke-width:2.4;stroke-linecap:round;stroke-linejoin:round;stroke-miterlimit:10" transform="translate(81.167 122.5063)"/><path d="m0 0-9.391-4.857-10.649-4.149-8.181-2.72-6.236-3.587" style="fill:none;stroke:#b3b3b3;stroke-width:2.4;stroke-linecap:round;stroke-linejoin:round;stroke-miterlimit:10" transform="translate(50.478 120.1157)"/><path d="m0 0 4.221-5.006 5.506 3.736-.196 1.569-6.568 10.649" style="fill:none;stroke:#b3b3b3;stroke-width:1.92;stroke-linecap:round;stroke-linejoin:round;stroke-miterlimit:10" transform="translate(191.5683 39.2563)"/><path d="m0 0-9.391-9.267-4.696-4.409-7.043-6.987-23.226-22.382-3.214-2.69" style="fill:none;stroke:#b3b3b3;stroke-width:1.92;stroke-linecap:round;stroke-linejoin:round;stroke-miterlimit:10" transform="translate(202.9443 92.5766)"/><g clip-path="url(#l)"><path d="m0 0 9.598-10.344 17.209-17.917 32.394-32.21 4.499-4.258 2.924-3.106 10.716-9.301 4.715-4.072 5.934-4.783" style="fill:none;stroke:#b3b3b3;stroke-width:1.92;stroke-linecap:round;stroke-linejoin:round;stroke-miterlimit:10" transform="translate(139.8867 179.9878)"/></g><path d="m0 0-23.646 22.42" style="fill:none;stroke:#b3b3b3;stroke-width:1.92;stroke-linecap:round;stroke-linejoin:round;stroke-miterlimit:10" transform="translate(177.1465 97.5835)"/><path d="m0 0-4.891 5.829" style="fill:none;stroke:#b3b3b3;stroke-width:1.92;stroke-linecap:round;stroke-linejoin:round;stroke-miterlimit:10" transform="translate(191.5683 39.2563)"/><path d="m0 0-2.348 2.99-1.928 2.728" style="fill:none;stroke:#b3b3b3;stroke-width:1.92;stroke-linecap:round;stroke-linejoin:round;stroke-miterlimit:10" transform="translate(72.8657 125.0845)"/><path d="m0 0 10.621 11.509" style="fill:none;stroke:#b3b3b3;stroke-width:1.92;stroke-linecap:round;stroke-linejoin:round;stroke-miterlimit:10" transform="translate(153.501 120.0034)"/><g style="fill:none;stroke:#b3b3b3;stroke-width:1.92;stroke-linecap:round;stroke-linejoin:round;stroke-miterlimit:10;clip-path:url(#m)"><path d="m0 0-18.052 13.594-2.348 1.831-17.049 11.993-1.538 1.084-25.35 17.711-2.767 2.279" transform="translate(276.0019 21.852)"/><path d="m0 0-11.292 8.407-6.177 5.119-3.253 2.744-1.666 1.405-5.534 4.26-18.335 19.953-5.339 5.866-7.686 6.988-10.23 10.126-7.091 7.945-10.628 10.925" transform="translate(236.624 106.7007)"/></g><path d="m0 0 31.556-32.508" style="fill:none;stroke:#b3b3b3;stroke-width:1.92;stroke-linecap:round;stroke-linejoin:round;stroke-miterlimit:10" transform="translate(123.8183 109.6899)"/><g clip-path="url(#n)"><path d="m0 0-2.125 2.279-3.829 3.7-10.257 8.257-8.944 8.258-7.463 5.866-5.757 4.26" style="fill:none;stroke:#b3b3b3;stroke-width:1.92;stroke-linecap:round;stroke-linejoin:round;stroke-miterlimit:10" transform="translate(68.5898 130.8022)"/></g><path d="m0 0-6.4 3.438-18.335 11.248" style="fill:none;stroke:#b3b3b3;stroke-width:1.92;stroke-linecap:round;stroke-linejoin:round;stroke-miterlimit:10" transform="translate(123.8183 109.6899)"/><g clip-path="url(#o)"><path d="m0 0-3.887-3.546-11.972-11.019-17.915-16.254-6.597-6.428-7.881-9.416" style="fill:none;stroke:#b3b3b3;stroke-width:1.92;stroke-linecap:round;stroke-linejoin:round;stroke-miterlimit:10" transform="translate(267.4077 166.8901)"/></g><path d="m0 0 8.329-8.108 23.673-24.512 10.23-11.546 4.248-5.007 1.929-1.98 7.462-9.117 6.177-8.295" style="fill:none;stroke:#b3b3b3;stroke-width:1.92;stroke-linecap:round;stroke-linejoin:round;stroke-miterlimit:10" transform="translate(135.334 121.0864)"/><path d="m0 0 10.872-10.836 11.096-11.397" style="fill:none;stroke:#b3b3b3;stroke-width:1.92;stroke-linecap:round;stroke-linejoin:round;stroke-miterlimit:10" transform="translate(115.2939 145.3374)"/><g style="fill:none;stroke:#b3b3b3;stroke-width:1.92;stroke-linecap:round;stroke-linejoin:round;stroke-miterlimit:10;clip-path:url(#p)"><path d="m0 0 28.564-20.104 1.929-1.98 3.409-5.007 8.526-15.507" transform="translate(250.7109 128.0747)"/><path d="m0 0 .433-3.004 2.569-2.721 5.386-5.874 8.748-8.968 9.364-10.687 11.962-12.705 8.944-10.089 9.81-10.275 8.944-7.548 1.286-1.009 13.863-9.566" transform="translate(167.4731 207.9419)"/></g><path d="m0 0-5.115-8.258" style="fill:none;stroke:#b3b3b3;stroke-width:1.92;stroke-linecap:round;stroke-linejoin:round;stroke-miterlimit:10" transform="translate(227.876 93.9966)"/><g clip-path="url(#q)"><path d="m0 0 39.943-23.764 24.872-14.161 18.112-10.835 10.453-6.277 16.854-9.977.224-.709 11.235-22.268 7.902-15.024 8.561-16.286" style="fill:none;stroke:#b3b3b3;stroke-width:1.92;stroke-linecap:round;stroke-linejoin:round;stroke-miterlimit:10" transform="translate(206.9971 5.9282)"/></g><path d="m0 0 20.384-12.864 18.782-11.097" style="fill:none;stroke:#b3b3b3;stroke-width:1.92;stroke-linecap:round;stroke-linejoin:round;stroke-miterlimit:10" transform="translate(167.831 29.8891)"/><g clip-path="url(#r)"><path d="m0 0 2.571 3.736 6.177 8.968 12.158 18.795 1.929 2.579 5.31 7.547 5.562 5.867" style="fill:none;stroke:#b3b3b3;stroke-width:1.92;stroke-linecap:round;stroke-linejoin:round;stroke-miterlimit:10" transform="translate(227.876 93.9966)"/></g><path d="m0 0 3.111 3.39 3.382 3.1 1.313 1.197 5.115 4.11 5.926 3.399 3.382 2.018 2.626 1.569 1.845 1.532 2.851 2.317 4.696 5.567 3.633 5.979 3.186 6.277 1.063 2.018 3.633 4.11 2.991 1.308 1.286 1.27 2.124 2.691 2.767 3.998" style="fill:none;stroke:#b3b3b3;stroke-width:1.92;stroke-linecap:round;stroke-linejoin:round;stroke-miterlimit:10" transform="translate(167.831 29.8891)"/><path d="m0 0-17.497-17.936" style="fill:none;stroke:#b3b3b3;stroke-width:1.92;stroke-linecap:round;stroke-linejoin:round;stroke-miterlimit:10" transform="translate(143.6631 152.437)"/><g clip-path="url(#s)"><path d="m0 0-2.091-1.939-15.601-14.465-16.631-15.245-10.649-9.716-11.738-10.836-17.693-17.787" style="fill:none;stroke:#b3b3b3;stroke-width:1.92;stroke-linecap:round;stroke-linejoin:round;stroke-miterlimit:10" transform="translate(211.665 193.0923)"/></g><path d="m0 0-11.516-11.396-15.149-14.685-10.425-10.537-10.453-10.425" style="fill:none;stroke:#b3b3b3;stroke-width:1.92;stroke-linecap:round;stroke-linejoin:round;stroke-miterlimit:10" transform="translate(135.334 121.0864)"/><g clip-path="url(#t)"><path d="m0 0 3.468 1.453 20.345 2.163 20.263 2.13 21.326 3.998 24.378 7.465 20.426 10.059" style="fill:none;stroke:#b3b3b3;stroke-width:1.92;stroke-linecap:round;stroke-linejoin:round;stroke-miterlimit:10" transform="translate(248.6426 -15.5112)"/></g><path d="m0 0-6.588 6.732-7.575 8.931-18.754 21.672-8.329 8.145-2.236 2.391-19.285 20.813" style="fill:none;stroke:#b3b3b3;stroke-width:1.92;stroke-linecap:round;stroke-linejoin:round;stroke-miterlimit:10" transform="translate(150.5581 5.3598)"/><g style="fill:none;stroke:#b3b3b3;stroke-width:1.92;stroke-linecap:round;stroke-linejoin:round;stroke-miterlimit:10;clip-path:url(#u)"><path d="m0 0 .867 1.42.195 1.046-.195.972-.643 1.121-1.705 2.279-1.929 2.167-7.239 7.099-15.568 15.395-17.692 18.123-5.562 5.418-3.634 3.55-5.534 5.829-2.767 3.026-8.524 8.52-6.205 6.128-7.737 8.636" transform="translate(213.5932 76.4722)"/><path d="m0 0-20.638 15.281-13.564 14.528" transform="translate(184.7602 -24.4487)"/><path d="m0 0 9.333-9.794 2.954-3.322 6.624-6.916 24.017-20.29 18.366-14.124 10.693-9.152 8.956-6.938" transform="translate(254.1875 173.1382)"/><path d="m0 0-1.699-1.686-15.546-15.428-15.568-15.395" transform="translate(223.1797 181.0972)"/><path d="m0 0 14.729-7.548 15.569-8.556 21.102-11.546" transform="translate(222.7607 85.7388)"/></g><path d="m0 0-1.928-2.018" style="fill:none;stroke:#b3b3b3;stroke-width:1.92;stroke-linecap:round;stroke-linejoin:round;stroke-miterlimit:10" transform="translate(137.2622 123.104)"/><g clip-path="url(#v)"><path d="m0 0-26.44-21.073-20.04-15.992-16.435-12.816-9.168-6.986-3.633-.972-33.037-3.026-28.788-2.392-11.739-1.158" style="fill:none;stroke:#b3b3b3;stroke-width:1.92;stroke-linecap:round;stroke-linejoin:round;stroke-miterlimit:10" transform="translate(15.289 13.3257)"/></g><path d="m0 0 3.737 3.042" style="fill:none;stroke:#b3b3b3;stroke-width:1.92;stroke-linecap:round;stroke-linejoin:round;stroke-miterlimit:10" transform="translate(15.289 13.3257)"/><path d="m0 0 19.006 15.473" style="fill:none;stroke:#b3b3b3;stroke-width:1.92;stroke-linecap:round;stroke-linejoin:round;stroke-miterlimit:10" transform="translate(19.0264 16.3677)"/><path d="m0 0 3.697 3.008" style="fill:none;stroke:#b3b3b3;stroke-width:1.92;stroke-linecap:round;stroke-linejoin:round;stroke-miterlimit:10" transform="translate(38.0322 31.8403)"/><g style="fill:none;stroke:#b3b3b3;stroke-width:1.92;stroke-linecap:round;stroke-linejoin:round;stroke-miterlimit:10;clip-path:url(#w)"><path d="m0 0-9.467-1.394-.712-.986-9.897-13.722-1.063-1.569-7.699-11.109-7.721-10.081-10.318-14.312-7.521-10.533-16.84-24.299-9.377-14.038-14.506-20.364-20.487-27.65-11.069-15.692-11.963-15.806" transform="translate(333.6738 171.6772)"/><path d="m0 0-3.582-4.895-11.823-16.145-18.461-25.211-28.845-39.394-27.359-37.363-1.702-2.324-24.278-33.16-38.979-53.231" transform="translate(338.7129 107.4966)"/><path d="m0 0 16.951 21.536 14.283 19.953 16.211 22.643 11.207 16.389 7.771 11 11.546 16.586 10.797 16.628 7.719 10.014 7.27 9.114 2.015 1.879 3.978 1.144" transform="translate(226.7158 -6.0435)"/><path d="m0 0-31.172-30.028-6.82-6.468-11.806-11.285-17.692-18.235-13.221-12.555-2.767-2.428-6.705-6.356-2.909-2.762-5.758-5.418-5.954-6.128-10.229-10.388-9.811-9.117-4.919-4.559-.419-.597-6.624-6.128-14.925-13.975" transform="translate(292.1797 209.6343)"/><path d="m0 0-31.053 27.232-1.031 2.623-.402 2.313-.383 15.9" transform="translate(99.3066 159.313)"/></g><path d="m0 0-19.813-17.812-1.093-.983-2.348-1.905-16.323-13.238-6.485-5.257" style="fill:none;stroke:#b3b3b3;stroke-width:1.92;stroke-linecap:round;stroke-linejoin:round;stroke-miterlimit:10" transform="translate(87.791 74.0434)"/><path d="m0 0-8.832 8.855-10.146 8.557-9.168 7.697-6.819 5.418-3.215 4.26-2.766 4.708" style="fill:none;stroke:#b3b3b3;stroke-width:1.92;stroke-linecap:round;stroke-linejoin:round;stroke-miterlimit:10" transform="translate(87.791 74.0434)"/><path d="m0 0 5.114 4.409 7.882 8.968 8.106 9.565" style="fill:none;stroke:#b3b3b3;stroke-width:1.92;stroke-linecap:round;stroke-linejoin:round;stroke-miterlimit:10" transform="translate(68.8135 91.4556)"/><path d="m0 0-2.029 2.328-3.609 4.872-2.766 4.185-4.053 5.567-.643.972-11.515 12.704-2.768 2.69-7.658 7.847-24.121 23.951-4.025 4.559-9.614 9.976-5.115 4.858" style="fill:none;stroke:#b3b3b3;stroke-width:1.92;stroke-linecap:round;stroke-linejoin:round;stroke-miterlimit:10" transform="translate(167.831 29.8891)"/><path d="m0 0 9.168 9.978" style="fill:none;stroke:#b3b3b3;stroke-width:1.92;stroke-linecap:round;stroke-linejoin:round;stroke-miterlimit:10" transform="translate(89.915 114.3979)"/><path d="m0 0-1.705-2.579-1.286-3.4-.419-1.719v-4.408l.838-3.439 1.063-1.569" style="fill:none;stroke:#b3b3b3;stroke-width:1.92;stroke-linecap:round;stroke-linejoin:round;stroke-miterlimit:10" transform="translate(82.6763 139.6206)"/><g clip-path="url(#x)"><path d="m0 0 10.425 14.896 12.801 18.589 14.087 20.143 11.291 16.978 5.982 7.551" style="fill:none;stroke:#b3b3b3;stroke-width:1.92;stroke-linecap:round;stroke-linejoin:round;stroke-miterlimit:10" transform="translate(113.2451 -48.2681)"/></g><path d="m0 0 2.543-2.354 6.205-5.754" style="fill:none;stroke:#b3b3b3;stroke-width:1.92;stroke-linecap:round;stroke-linejoin:round;stroke-miterlimit:10" transform="translate(81.167 122.5063)"/><g style="fill:none;stroke:#b3b3b3;stroke-linecap:round;stroke-linejoin:round;stroke-miterlimit:10;clip-path:url(#y)"><path d="m0 0 1.286-1.121.766-.774 17.15-17.349 2.348-2.279 6.819-7.249 9.168-9.715.866-1.121 25.214-22.985 17.888-16.44 18.623-15.608 3.359-5.843 3.055-6.286 1.331-5.851 1.386-11.303" stroke-width="1.92" transform="translate(223.1797 181.0972)"/><g stroke-width="2.4"><path d="m0 0-1.062 8.108-.643 12.256.419 11.135.867 7.398 1.481 7.698 4.053 17.376 2.906 11.247 3.075 12.592 4.891 17.674 6.719 25.81" transform="translate(6.541 75.3511)"/><path d="m0 0-7.943-28.283-7.678-29.636-2.89-9.935-4.248-17.115-1.515-10.151-.833-9.652.688-19.127 2.157-12.428 1.92-13.146" transform="translate(24.8281 207.7739)"/><path d="m0 0 4.318-12.188 5.423-13.246 7.015-11.695 6.205-8.407 11.516-13.824 13.639-14.834 20.04-22.232 22.594-22.175" transform="translate(4.4863 58.3013)"/><path d="m0 0-22.81 22.515-12.98 14.034-5.338 6.987-7.351 11.722-7.918 15.297-5.518 15.536-2.887 13.604" transform="translate(71.3428 -24.3443)"/><path d="m0 0 17.916-28.659 2.795-4.26 5.73-9.864 6.848-11.098 5.101-8.082 6.833-11.758 5.339-8.669 4.471-7.286 10.007-18.234 5.562-12.106 5.917-13.103 4.955-10.996 4.891-7.697" transform="translate(-81.7529 112.2681)"/></g></g><path d="m0 0 2.728-.464 5.277-1.674 5.039-3.344 5.392-5.257 11.274-11.8" style="fill:none;stroke:#b3b3b3;stroke-width:2.4;stroke-linecap:round;stroke-linejoin:round;stroke-miterlimit:10" transform="translate(20.7676 142.6548)"/><g clip-path="url(#z)"><path d="m0 0-23.889 1.86" style="fill:none;stroke:#b3b3b3;stroke-width:2.4;stroke-linecap:round;stroke-linejoin:round;stroke-miterlimit:10" transform="translate(20.7676 142.6548)"/></g><path d="m0 0 2.116-3.637" style="fill:none;stroke:#b3b3b3;stroke-width:2.4;stroke-linecap:round;stroke-linejoin:round;stroke-miterlimit:10" transform="translate(50.478 120.1157)"/><g fill="#c0c0c0"><path d="m0 0 7.725 7.697 11.588-11.546-7.725-7.697z" transform="translate(186.0347 134.2954)"/><path d="m0 0 2.85-1.842v4.864l-.619.401zm-3.476-10.485 6.326-4.089v5.773l-3.68 2.38z" transform="translate(257.0436 101.6532)"/><path d="m0 0 3.208-11.277-5.732-1.619-3.208 11.274z" transform="translate(26.4048 75.6059)"/><path d="m0 0 14.232-14.479-11.58-11.296-14.232 14.479z" transform="translate(118.9468 140.3716)"/><path d="m0 0 2.633-3.935 6.21-6.075 8.623-6.942 1.21.321 1.638 1.617 14.031 17.279-9.598 7.391-1.124.747-3.6-.224-4.122-2.014z" transform="translate(50.7827 112.0102)"/><path d="m0 0 16.36-16.36 8.469 8.362-7.423 7.998z" transform="translate(138.0969 161.6832)"/><path d="m0 0 1.513-4.309 2.61-2.04 1.425-.373.853-2.268 13.097 5.223 2.228 2.332.888 2.16-3.946 3.385-1.263 1.813-3.986 3.863-2.398 1.641-1.937-.049-4.134-1.517-1.49-.65-2.109-2.19 1.349-1.121-.813-2.664v-2.092z" transform="translate(21.9912 122.1665)"/><path d="m0 0 6.395-6.722 11.104 10.787-4.159 3.95.786 1.016-7.636 8.12-3.656-2.851 5.643-6.315z" transform="translate(175.917 81.7593)"/><path d="m0 0-12.804-12.315 2.915-3.98 3.55 4.61 12.552-5.682 5.389 12.438z" transform="translate(197.1338 84.8198)"/><path d="m0 0-5.383-6.281-2.65-3.09 15.431-13.373 8.15 9.483z" transform="translate(214.5434 121.5239)"/><path d="m0 0-2.792-3.408-.906-9.566 10.531-8.568 2.547 3.109-2.175 1.767 5.311 6.479z" transform="translate(31.3271 160.4448)"/><path d="m0 0-13.648-11.407 2.798-3.304-2.281-.687.601-10.081 2.585.687.216-5.275 3.53.986 24.713 19.516-11.281 10.809-3.616-1.629z" transform="translate(33.6997 105.5161)"/><path d="m0 0 2.756-3.304-12.485-10.85-2.801 3.217z" transform="translate(65.3891 92.0054)"/><path d="m0 0 .869-1.11 3.03 2.358 9.076-11.587-.996-.777.897-1.144-6.563-5.1-10.841 13.837z" transform="translate(60.8642 80.478)"/><path d="m0 0 1.219.904 9.712-13.04-1.336-.47.657-.826-7.107-5.593-10.499 13.242z" transform="translate(51.0146 70.852)"/><path d="m0 0 .017-.226 22.19-18.97 8.846.299 3.597-2.991.735 1.196 1.8-1.196 10.197 12.697-1.337 1.047 1.337 1.644.298 1.943.615 2.239.584 1.943.377.375z" transform="translate(37.9448 161.6832)"/><path d="m0 0 7.65-7.682-14.263-14.097-7.65 7.685z" transform="translate(139.7021 59.269)"/><path d="m0 0 11.18-13.865-5.126-4.103-11.18 13.866z" transform="translate(65.2021 44.8423)"/><path d="m0 0 5.206-5.446h5.479l10.679 10.135-7.811 8.172z" transform="translate(119.7126 5.4459)"/><path d="m0 0 3.34-6.125h12.119l-6.099 11.188z" transform="translate(95.796 6.1254)"/><path d="m0 0 27.268-27.393-7.989-7.891-27.267 27.388z" transform="translate(99.6113 81.4536)"/><path d="m0 0 4.567-4.589-7.068-6.987-4.567 4.589z" transform="translate(97.0283 59.9946)"/><path d="m0 0 3.494-3.509-9.827-9.712-3.495 3.509z" transform="translate(93.3364 96.2016)"/><path d="m0 0 9.598-9.641-9.196-9.083-9.597 9.64z" transform="translate(148.7383 31.5415)"/><path d="m0 0 2.046-2.25-.375-.336 4.576-5.029-5.705-5.15-6.621 7.276z" transform="translate(77.5781 60.9438)"/><path d="m0 0h7.562l-4.808 3.626z" transform="translate(204.7902)"/><path d="m0 0 8.368-4.805-3.553-6.138-8.37 4.804z" transform="translate(208.8223 29.7661)"/><path d="m0 0 3.829 6.647 17.304-9.893-3.826-6.644z" transform="translate(189.2461 18.8852)"/><path d="m0 0 7.955-8.112-.749-.837 3.734-3.632.386-.378 6.548 6.431-2.871 3.325-.589.684-.749-.557-8.33 8.482-2.495-2.529-1.487-1.506z" transform="translate(182.4067 98.9106)"/><path d="m0 0-5.159 5.104 1.238 1.241-.601.593 2.794 2.806.691-.683 4.995 5.014 5.092-5.037-4.997-5.015.679-.671-2.871-2.885-.704.695z" transform="translate(83.8389 55.2231)"/><path d="m0 0 5.633 5.909 17.5-10.527-9.841-9.26z" transform="translate(95.3213 113.6655)"/><path d="m0 0 12.91 12.559 14.266-14.558-12.91-12.555z" transform="translate(194.4726 147.6616)"/><path d="m0 0 16.812 16.4 6.476-6.591-16.814-16.397z" transform="translate(139.2773 120.9634)"/><path d="m0 0 5.005-3.545v10.559z" transform="translate(254.889 126.3816)"/><path d="m0 0 8.919-9.08-2.882-2.811-8.919 9.077z" transform="translate(136.1865 81.1509)"/><path d="m0 0 12.262 13.205 6.833-6.293-12.261-13.209z" transform="translate(212.4697 128.8403)"/><path d="m0 0 9.201 8.971 4.313-4.387-9.199-8.975z" transform="translate(128.9946 83.2993)"/><path d="m0 0 15.309-10.848-3.81-5.335-15.311 10.843z" transform="translate(238.8848 46.4497)"/><path d="m0 0 6.408-4.539v9.075l-2.106 1.491z" transform="translate(253.4859 27.5319)"/><path d="m0 0-1.702-2.11 9.674-7.746 7.954 9.856z" transform="translate(105.0524 161.6832)"/><path d="m0 0 9.047-6.987-8.147-10.47-9.047 6.987z" transform="translate(212.668 104.6235)"/><path d="m0 0 9.883-7.002 7.965 11.161v8.291l-5.953 4.215z" transform="translate(242.046 51.0336)"/><path d="m0 0 10.101-8.378-13.586-16.254-10.098 8.377z" transform="translate(101.2656 155.5649)"/><path d="m0 0 5.46-5.854 6.321 5.854z" transform="translate(248.0112 161.6832)"/><path d="m0 0 7.697-7.093-12.228-13.171-7.697 7.092z" transform="translate(250.4814 149.7134)"/><path d="m0 0 5.688-5.788-3.388-3.307-5.687 5.788z" transform="translate(140.9292 113.5874)"/><path d="m0 0 13.01-13.668-11.403-10.776-13.011 13.672z" transform="translate(160.3183 79.2036)"/><path d="m0 0 8.776-6.217-4.967-6.957-8.776 6.214z" transform="translate(231.624 37.2124)"/><path d="m0 0 5.014-5.101-3.505-3.419-5.014 5.105z" transform="translate(130.6523 112.9409)"/><path d="m0 0 3.374 3.235 13.315-13.772-3.374-3.235z" transform="translate(144.5625 64.5229)"/><path d="m0 0 3.511 3.423 5.475-5.571-3.51-3.423z" transform="translate(160.6953 125.9741)"/><path d="m0 0 13.142-13.377-2.289-2.234-13.145 13.377z" transform="translate(164.3623 116.2368)"/><path d="m0 0 4.873-5.36v8.508l-.622.685z" transform="translate(255.0204 153.8388)"/><path d="m0 0 7.334-7.466-4.534-4.42-7.334 7.466z" transform="translate(124.6152 107.2124)"/><path d="m0 0 9.735-9.905-6.068-5.919-9.734 9.905z" transform="translate(197.0635 114.23)"/><path d="m0 0 6.389-6.727 7.139 6.727z" transform="translate(158.81 161.6832)"/><path d="m0 0 14.456 15.571 7.107-6.547-14.456-15.574z" transform="translate(227.1211 143.8423)"/><path d="m0 0 11.387-8.605-8.897-11.677-11.384 8.605z" transform="translate(231.2685 131.6616)"/><path d="m0 0 3.958-4.024-4.389-4.282-3.957 4.028z" transform="translate(141.1445 103.7749)"/><path d="m0 0 4.363-4.439-2.35-2.29-4.364 4.438z" transform="translate(203.749 120.605)"/><path d="m0 0 8.416 8.222 15.448-15.695-8.413-8.22z" transform="translate(169.6699 150.5981)"/><path d="m0 0 16.569-16.505-8.894-8.863-16.569 16.509z" transform="translate(180.1401 136.5229)"/><path d="m0 0-.046-.046 9.265-9.309 9.47 9.355z" transform="translate(181.7123 161.6832)"/><path d="m0 0 8.846 8.628 1.722-1.753-8.846-8.624z" transform="translate(158.6103 141.2983)"/><path d="m0 0 9.657-9.218-6.379-6.633-9.656 9.215z" transform="translate(163.6719 108.1694)"/><path d="m0 0 6.018 5.867 5.626-5.724-6.018-5.871z" transform="translate(165.2959 116.9536)"/><path d="m0 0 2.794-1.98-3.801-5.326-2.792 1.981z" transform="translate(226.5205 55.5444)"/><path d="m0 0 6.669-4.727-5.52-7.734-6.669 4.727z" transform="translate(212.7212 65.8569)"/><path d="m0 0 6.305-6.416-7.884-7.689-6.305 6.415z" transform="translate(177.5854 96.3286)"/><path d="m0 0 13.486-13.724-4.291-4.749-13.771 14.012z" transform="translate(119.7993 101.772)"/><path d="m0 0 12.29-13.084 14.037 13.084z" transform="translate(212.2844 161.6832)"/><path d="m0 0 9.86 9.618 8.324-8.471-9.861-9.618z" transform="translate(133.6709 140.7973)"/><path d="m0 0 5.439-3.855-4.866-6.817-5.439 3.857z" transform="translate(206.4687 56.7622)"/><path d="m0 0 6.073-6.18-6.291-6.135-6.074 6.18z" transform="translate(145.8906 84.4419)"/><path d="m0 0 14.718-15.006-7.25-7.055-14.716 15.003z" transform="translate(108.9072 90.6743)"/><path d="m0 0-4.234-4.017 10.682-11.183 13.861 13.137-3.475 3.64-9.623-9.129z" transform="translate(92.8359 43.7407)"/><path d="m0 0-14.24-13.145 15.068-16.201 4.714 4.35-10.589 11.389 9.525 8.791z" transform="translate(117.2222 37.2388)"/><path d="m0 0 24.66-14.804 6.256 10.347-5.115 3.071-2.695-4.458-19.545 11.733z" transform="translate(227.9648 87.0278)"/><path d="m0 0 11.048 10.918 13.953-14.016-3.122-3.086-2.16 2.171-1.32-1.303-3.921 3.941-6.608-6.531z" transform="translate(78.7187 98.6782)"/><path d="m0 0 13.497 11.061 5.115-6.196-13.497-11.06z" transform="translate(121.8476 147.8257)"/><path d="m0 0 5.73 2.793-5.73 11.667z" transform="translate(0 10.8759)"/><path d="m0 0 6.105-7.673-5.353-4.223 4.633-5.827h4.241l2.771 2.188 1.739-2.188h5.951l-16.403 20.631z" transform="translate(70.965 17.7228)"/><path d="m0 0 14.087-11.599-4.26-5.133-14.086 11.598z" transform="translate(46.2685 144.7358)"/><path d="m0 0 19.693 16.685 3.72-4.358-19.696-16.683z" transform="translate(32.3974 78.396)"/><path d="m0 0 11.356-13.533-5.067-4.223-11.356 13.534z" transform="translate(69.126 87.3452)"/><path d="m0 0 11.355-13.746-5.265-4.32-11.356 13.747z" transform="translate(41.7412 64.7173)"/><path d="m0 0 1.166-1.096h10.411l10.495 11.076-6.671 6.274z" transform="translate(159.7284 1.0962)"/><path d="m0 0-2.482 3.329 2.493 1.843.895-1.199-.926-.684 1.588-2.131z" transform="translate(32.3105 70.7251)"/><path d="m0 0 28.428-19.396 15.135 16.829-31.181 18.04z" transform="translate(210.3789 70.2661)"/></g><path d="m0 0-4.827 6.476 3.312 3.003 4.352 3.946-7.103 8.665-4.047-2.488 6.798-10.123" style="fill:none;stroke:#808080;stroke-width:.24;stroke-linecap:round;stroke-linejoin:round;stroke-miterlimit:10" transform="translate(67.9775 56.2319)"/><path d="m0 0-4.779-3.304-8.05 9.009-4.307-3.389 8.223-9.266 4.134 3.646" style="fill:none;stroke:#808080;stroke-width:.24;stroke-linecap:round;stroke-linejoin:round;stroke-miterlimit:10" transform="translate(63.1504 62.7075)"/><path d="m0 0-13.782 16.512-2.411 2.316 16.277 13.638 16.619 14.931 3.897 3.954" style="fill:none;stroke:#808080;stroke-width:.24;stroke-linecap:round;stroke-linejoin:round;stroke-miterlimit:10" transform="translate(48.2139 40.105)"/><path d="m0 0 1.775-4.077.084-.194" style="fill:none;stroke:#808080;stroke-width:.24;stroke-linecap:round;stroke-linejoin:round;stroke-miterlimit:10" transform="translate(54.4355 117.4253)"/><path d="m0 0 .17-2.828 7.301-6.88 5.682-4.188" style="fill:none;stroke:#808080;stroke-width:.24;stroke-linecap:round;stroke-linejoin:round;stroke-miterlimit:10" transform="translate(56.2944 113.1538)"/><path d="m0 0 2.102-.561 3.058 1.242 6.059 2.465" style="fill:none;stroke:#808080;stroke-width:.24;stroke-linecap:round;stroke-linejoin:round;stroke-miterlimit:10" transform="translate(56.2104 113.3481)"/><path d="m0 0 11.94-9.847" style="fill:none;stroke:#808080;stroke-width:.24;stroke-linecap:round;stroke-linejoin:round;stroke-miterlimit:10" transform="translate(61.3701 114.0288)"/><path d="m0 0 9.631-7.697" style="fill:none;stroke:#808080;stroke-width:.24;stroke-linecap:round;stroke-linejoin:round;stroke-miterlimit:10" transform="translate(67.4297 116.4946)"/><path d="m0 0 3.863 4.924 3.751 4.615 4.005 5.149-6.562 4.529" style="fill:none;stroke:#808080;stroke-width:.24;stroke-linecap:round;stroke-linejoin:round;stroke-miterlimit:10" transform="translate(69.4473 99.2583)"/><path d="m0 0-3.438 1.895-3.444 3.209" style="fill:none;stroke:#808080;stroke-width:.24;stroke-linecap:round;stroke-linejoin:round;stroke-miterlimit:10" transform="translate(74.5039 118.4751)"/><g clip-path="url(#A)" fill="none" stroke="#808080" stroke-miterlimit="10"><path d="m0 0 .109.189.119-.069c.066-.038.12-.05.16-.037.041.012.073.039.096.078.013.023.021.047.023.072.001.024-.002.046-.012.066-.009.02-.024.038-.045.055-.014.012-.037.027-.068.045l-.175.101-.269-.464zm.237.41.119-.069c.028-.016.046-.028.055-.037.013-.014.021-.03.023-.05.002-.019-.003-.039-.014-.058-.016-.027-.036-.043-.061-.048-.026-.005-.058.004-.098.026l-.12.07z" transform="translate(261.7899 64.2871)"/><path d="m0 0 .06-.034c0 .017.003.033.009.048.005.016.023.05.054.103l.044.076c.015.026.024.044.028.055.005.017.007.034.004.049-.002.015-.011.031-.025.048s-.035.034-.064.051c-.029.016-.057.027-.083.032-.027.005-.05.003-.07-.005s-.04-.022-.059-.043l.052-.04c.02.02.039.031.057.033s.041-.004.068-.02c.028-.016.046-.035.053-.057.006-.015.002-.035-.012-.058-.001-.002-.004-.007-.009-.015-.026.005-.064.018-.113.039-.024.011-.043.017-.056.021-.017.005-.035.006-.051.005-.017-.001-.034-.007-.049-.016s-.028-.022-.037-.039c-.017-.028-.02-.056-.011-.086.01-.03.033-.055.07-.076.023-.013.046-.022.07-.026.023-.004.051-.003.083.003-.008-.017-.012-.033-.013-.048zm.069.157c-.014-.025-.028-.042-.042-.051-.018-.012-.038-.018-.06-.018-.023 0-.045.007-.067.019-.023.013-.037.028-.042.045-.006.017-.004.033.005.048.005.01.013.017.023.022.01.006.021.007.033.006s.031-.007.057-.017c.045-.018.08-.029.105-.033z" transform="translate(262.3855 63.9432)"/><path d="m0 0c.014-.032.042-.06.082-.083.034-.02.066-.03.096-.031.031 0 .058.007.081.023s.05.05.08.102l.168.291-.052.031-.024-.041c-.007.047-.03.082-.07.105-.03.017-.06.025-.091.023s-.06-.013-.087-.034c-.027-.02-.05-.047-.069-.079-.027-.047-.037-.094-.031-.142s.032-.085.079-.112c.037-.022.076-.025.118-.01-.021-.037-.036-.061-.046-.071-.016-.016-.034-.025-.055-.027-.02-.003-.044.004-.07.019-.025.014-.041.031-.049.049-.006.014-.005.031.002.049l-.051.04c-.022-.036-.025-.07-.011-.102zm.255.354c.03.01.057.008.083-.007.025-.014.041-.038.048-.069.006-.032-.003-.068-.027-.109-.025-.043-.052-.07-.081-.08-.03-.01-.058-.007-.084.008s-.042.038-.048.068c-.006.031.004.068.029.112.024.041.05.067.08.077z" transform="translate(262.4776 63.7439)"/><path d="m0 0c-.021-.002-.042.002-.063.014-.028.017-.046.04-.053.071-.008.03-.002.065.017.103l.251-.145c.004.006.008.011.009.015.033.055.043.107.032.154-.01.047-.038.084-.083.11-.047.026-.094.033-.141.018-.047-.014-.087-.05-.12-.106-.032-.055-.042-.106-.03-.153.011-.047.041-.085.09-.113.04-.023.077-.032.113-.027.037.004.069.021.098.05l-.054.041c-.023-.019-.045-.03-.066-.032zm.002.286c.028.007.055.003.081-.012.029-.016.046-.041.052-.074.003-.021-.002-.046-.015-.076l-.189.109c.019.028.043.046.071.053z" transform="translate(263.1044 63.6026)"/><path d="m0 0c.002-.034.014-.065.035-.094s.053-.055.095-.079c.033-.02.067-.031.1-.034.034-.003.064.002.091.016s.047.033.061.058c.015.024.021.05.019.077-.002.026-.012.054-.032.082-.014.019-.043.049-.086.089-.044.04-.068.069-.074.087-.006.017-.004.035.006.051.011.02.029.031.054.035s.056-.005.093-.027c.036-.02.059-.043.068-.069.01-.025.008-.054-.006-.085l.061-.03c.015.028.022.057.02.087-.002.029-.013.057-.032.084-.02.026-.048.049-.082.069-.031.018-.063.029-.095.033-.031.005-.06 0-.085-.012-.025-.013-.044-.031-.058-.055-.012-.021-.018-.043-.017-.067.001-.023.009-.047.025-.072.012-.019.036-.046.073-.081s.06-.058.07-.07c.015-.019.023-.036.026-.052.002-.016-.001-.031-.01-.045-.008-.015-.02-.025-.036-.032-.016-.008-.035-.009-.057-.006s-.044.012-.068.025c-.026.016-.047.034-.063.055-.016.022-.025.043-.026.064-.002.02.003.043.014.068l-.061.028c-.017-.031-.025-.064-.023-.098z" transform="translate(263.4684 63.4058)"/><path d="m0 0c-.008.005-.014.01-.017.015-.003.006-.004.011-.004.017.001.006.006.017.016.033l.113.197.058-.033.025.045-.057.033.068.117-.077-.001-.048-.084-.042.025-.025-.045.042-.024-.112-.194c-.02-.034-.031-.058-.032-.071-.002-.014.001-.027.009-.04s.022-.026.042-.038c.013-.007.028-.014.046-.019l.021.055c-.011.004-.02.008-.026.012z" transform="translate(263.9795 63.088)"/><path d="m0 0 .102.176c.014.024.03.045.048.061.012.011.025.018.039.019.014.002.028-.001.04-.008.014-.008.026-.02.035-.036l.05.041c-.013.024-.029.042-.048.053-.013.007-.028.011-.043.009-.016-.001-.037-.01-.064-.026l.03.051-.052.03-.194-.337z" transform="translate(264.0886 62.9599)"/><path d="m0 0c-.021-.002-.042.002-.063.014-.028.017-.046.04-.054.071-.007.03-.001.065.018.103l.251-.145c.004.006.008.011.009.015.033.055.043.107.032.154-.01.047-.038.084-.083.11-.047.026-.094.033-.141.018-.047-.014-.087-.05-.12-.106-.032-.055-.042-.106-.03-.153.011-.047.041-.085.09-.113.04-.023.077-.032.113-.027.037.004.069.021.098.05l-.054.041c-.023-.019-.045-.03-.066-.032zm.002.286c.028.007.055.003.081-.012.029-.016.046-.041.052-.074.003-.021-.002-.046-.015-.076l-.189.109c.019.028.043.046.071.053z" transform="translate(264.4761 62.8107)"/><path d="m0 0c-.021-.002-.042.002-.063.014-.028.017-.046.04-.053.071-.008.03-.002.065.017.103l.251-.145c.004.006.008.011.009.015.033.055.043.107.032.154-.01.047-.038.084-.083.11-.047.026-.094.033-.141.018-.047-.014-.087-.05-.12-.106-.032-.055-.042-.106-.03-.153.011-.047.041-.085.09-.113.04-.023.077-.032.113-.027.037.004.069.021.098.05l-.054.041c-.023-.019-.045-.03-.066-.032zm.002.286c.028.007.055.003.081-.012.029-.016.046-.041.052-.074.003-.021-.002-.046-.015-.076l-.189.109c.019.028.043.046.071.053z" transform="translate(264.8373 62.6021)"/><path d="m0 0c-.008.005-.014.01-.017.015-.003.006-.004.011-.004.017.001.006.006.017.016.033l.113.197.058-.033.025.045-.057.033.068.117-.077-.001-.048-.084-.042.025-.025-.045.042-.024-.112-.194c-.02-.034-.031-.058-.032-.071-.002-.014.001-.027.009-.04.007-.013.022-.026.042-.038.013-.007.028-.014.046-.019l.021.055c-.011.004-.02.008-.026.012z" transform="translate(265.0988 62.4418)"/></g><g style="fill:none;stroke:#f9b6ac;stroke-width:4;stroke-linecap:round;stroke-linejoin:round;stroke-miterlimit:10;clip-path:url(#B)"><path d="m0 0-17.293 21.081-8.575 11.022-7.798 10.835-3.829 6.016-2.348 4.708-2.571 4.82-5.982 13.414-1.984 5.679-1.845 5.307-2.124 10.088-.223 6.987" transform="translate(71.3428 -24.3443)"/><path d="m0 0-1.062 8.108-.643 12.256.419 11.135.867 7.398 1.481 7.698 4.053 17.376 2.906 11.247 3.075 12.592 4.891 17.674 6.719 25.81" transform="translate(6.541 75.3511)"/><path d="m0 0-7.943-28.283-7.678-29.636-2.89-9.935-4.248-17.115-1.515-10.151-.833-9.652.688-19.127 2.157-12.428 1.92-13.146" transform="translate(24.8281 207.7739)"/><path d="m0 0 .866 18.234 1.063 12.107.838 5.866 2.376 10.317 3.597 10.28 7.678 24.855 7.437 21.27 1.663 5.108" transform="translate(6.541 75.3511)"/><path d="m0 0 .022-7.839-.444-6.465-3.169-15.182-2.401-11.83-3.357-16.016-4.559-20.315-1.198-9.798-.962-8.844-.238-5.736.238-10.993.481-9.084 1.439-7.644 5.757-17.211" transform="translate(12.8769 205.2583)"/></g><path d="m0 0 4.053-.561 1.481-.56 2.767-1.457" style="fill:none;stroke:#fff;stroke-width:4;stroke-linecap:round;stroke-linejoin:round;stroke-miterlimit:10" transform="translate(72.8657 125.0845)"/><g clip-path="url(#C)"><path d="m0 0-15.149-7.1-6.177-7.996-18.271-21.546-16.051-18.773-16.63-19.692" style="fill:none;stroke:#fff;stroke-width:4;stroke-linecap:round;stroke-linejoin:round;stroke-miterlimit:10" transform="translate(154.9546 214.7275)"/></g><path d="m0 0-7.267-4.26-6.819-4.558-9.587-6.128-8.525-4.559" style="fill:none;stroke:#fff;stroke-width:4;stroke-linecap:round;stroke-linejoin:round;stroke-miterlimit:10" transform="translate(82.6763 139.6206)"/><path d="m0 0 5.758.956 7.675 1.913 7.999 2.018 9.391 3.848 5.749 2.941 1.842.946.515.261 12.672 5.892 1.386.647 3.857.859" style="fill:none;stroke:#fff;stroke-width:4;stroke-linecap:round;stroke-linejoin:round;stroke-miterlimit:10" transform="translate(16.0215 104.8032)"/><path d="m0 0-4.318-1.671" style="fill:none;stroke:#fff;stroke-width:4;stroke-linecap:round;stroke-linejoin:round;stroke-miterlimit:10" transform="translate(16.0215 104.8032)"/><g clip-path="url(#D)"><path d="m0 0-19.635-6.353" style="fill:none;stroke:#fff;stroke-width:4;stroke-linecap:round;stroke-linejoin:round;stroke-miterlimit:10" transform="translate(11.7031 103.1323)"/></g><path d="m0 0 .106 3.467 1.509 8.968 5.859 24.953" style="fill:none;stroke:#fff;stroke-width:4;stroke-linecap:round;stroke-linejoin:round;stroke-miterlimit:10" transform="translate(16.0215 104.8032)"/><g style="fill:none;stroke:#fff;stroke-width:4;stroke-linecap:round;stroke-linejoin:round;stroke-miterlimit:10;clip-path:url(#E)"><path d="m0 0-.09-2.287.196-4.97.643-6.576 1.062-5.418 1.481-6.965 5.786-18.966 2.543-7.137 3.214-6.127 2.991-6.689 4.053-8.145 6.177-9.117 5.115-7.547 12.158-12.966 9.587-10.387 18.335-20.961 20.264-21.671" transform="translate(-12.7666 95.7231)"/><path d="m0 0 6.4 8.107 9.811 12.855 9.391 14.236 4.044 6.353.993 1.274 1.559 2.089 8.606 10.698 6.962 7.387 2.544 3.064 4.427 6.155" transform="translate(99.083 124.3755)"/><path d="m0 0-3.709.729-8.944 6.725-4.053 2.541-4.5 5.006-4.667 7.398-16.854 23.951-6.652 8.892-4.025 5.38-18.112 22.494" transform="translate(113.2451 -48.2681)"/></g><path d="m0 0-11.783 12.625" style="fill:none;stroke:#fff;stroke-width:4;stroke-linecap:round;stroke-linejoin:round;stroke-miterlimit:10" transform="translate(41.7295 34.8481)"/><path d="m0 0-2.723 2.918-1.705 2.13-1.481 2.989-2.571 5.156-.643 2.429-4.053 12.518" style="fill:none;stroke:#fff;stroke-width:4;stroke-linecap:round;stroke-linejoin:round;stroke-miterlimit:10" transform="translate(29.9463 47.4731)"/><path d="m0 0 5.758-1.121 1.509-.149h2.348l2.543.56 5.758 2.579" style="fill:none;stroke:#fff;stroke-width:4;stroke-linecap:round;stroke-linejoin:round;stroke-miterlimit:10" transform="translate(81.167 122.5063)"/><path d="m0 0-9.391-4.857-10.649-4.149-8.181-2.72-6.236-3.587" style="fill:none;stroke:#fff;stroke-width:4;stroke-linecap:round;stroke-linejoin:round;stroke-miterlimit:10" transform="translate(50.478 120.1157)"/><path d="m0 0 4.221-5.006 5.506 3.736-.196 1.569-6.568 10.649" style="fill:none;stroke:#fff;stroke-width:4;stroke-linecap:round;stroke-linejoin:round;stroke-miterlimit:10" transform="translate(191.5683 39.2563)"/><path d="m0 0-9.391-9.267-4.696-4.409-7.043-6.987-23.226-22.382-3.214-2.69" style="fill:none;stroke:#fff;stroke-width:4;stroke-linecap:round;stroke-linejoin:round;stroke-miterlimit:10" transform="translate(202.9443 92.5766)"/><g clip-path="url(#F)"><path d="m0 0 9.598-10.344 17.209-17.917 32.394-32.21 4.499-4.258 2.924-3.106 10.716-9.301 4.715-4.072 5.934-4.783" style="fill:none;stroke:#fff;stroke-width:4;stroke-linecap:round;stroke-linejoin:round;stroke-miterlimit:10" transform="translate(139.8867 179.9878)"/></g><path d="m0 0-23.646 22.42" style="fill:none;stroke:#fff;stroke-width:4;stroke-linecap:round;stroke-linejoin:round;stroke-miterlimit:10" transform="translate(177.1465 97.5835)"/><path d="m0 0-4.891 5.829" style="fill:none;stroke:#fff;stroke-width:4;stroke-linecap:round;stroke-linejoin:round;stroke-miterlimit:10" transform="translate(191.5683 39.2563)"/><path d="m0 0-2.348 2.99-1.928 2.728" style="fill:none;stroke:#fff;stroke-width:4;stroke-linecap:round;stroke-linejoin:round;stroke-miterlimit:10" transform="translate(72.8657 125.0845)"/><path d="m0 0 10.621 11.509" style="fill:none;stroke:#fff;stroke-width:4;stroke-linecap:round;stroke-linejoin:round;stroke-miterlimit:10" transform="translate(153.501 120.0034)"/><g style="fill:none;stroke:#fff;stroke-width:4;stroke-linecap:round;stroke-linejoin:round;stroke-miterlimit:10;clip-path:url(#G)"><path d="m0 0-18.052 13.594-2.348 1.831-17.049 11.993-1.538 1.084-25.35 17.711-2.767 2.279" transform="translate(276.0019 21.852)"/><path d="m0 0-11.292 8.407-6.177 5.119-3.253 2.744-1.666 1.405-5.534 4.26-18.335 19.953-5.339 5.866-7.686 6.988-10.23 10.126-7.091 7.945-10.628 10.925" transform="translate(236.624 106.7007)"/></g><path d="m0 0 31.556-32.508" style="fill:none;stroke:#fff;stroke-width:4;stroke-linecap:round;stroke-linejoin:round;stroke-miterlimit:10" transform="translate(123.8183 109.6899)"/><g clip-path="url(#H)"><path d="m0 0-2.125 2.279-3.829 3.7-10.257 8.257-8.944 8.258-7.463 5.866-5.757 4.26" style="fill:none;stroke:#fff;stroke-width:4;stroke-linecap:round;stroke-linejoin:round;stroke-miterlimit:10" transform="translate(68.5898 130.8022)"/></g><path d="m0 0-6.4 3.438-18.335 11.248" style="fill:none;stroke:#fff;stroke-width:4;stroke-linecap:round;stroke-linejoin:round;stroke-miterlimit:10" transform="translate(123.8183 109.6899)"/><g clip-path="url(#I)"><path d="m0 0-3.887-3.546-11.972-11.019-17.915-16.254-6.597-6.428-7.881-9.416" style="fill:none;stroke:#fff;stroke-width:4;stroke-linecap:round;stroke-linejoin:round;stroke-miterlimit:10" transform="translate(267.4077 166.8901)"/></g><path d="m0 0 8.329-8.108 23.673-24.512 10.23-11.546 4.248-5.007 1.929-1.98 7.462-9.117 6.177-8.295" style="fill:none;stroke:#fff;stroke-width:4;stroke-linecap:round;stroke-linejoin:round;stroke-miterlimit:10" transform="translate(135.334 121.0864)"/><path d="m0 0 10.872-10.836 11.096-11.397" style="fill:none;stroke:#fff;stroke-width:4;stroke-linecap:round;stroke-linejoin:round;stroke-miterlimit:10" transform="translate(115.2939 145.3374)"/><g style="fill:none;stroke:#fff;stroke-width:4;stroke-linecap:round;stroke-linejoin:round;stroke-miterlimit:10;clip-path:url(#J)"><path d="m0 0 28.564-20.104 1.929-1.98 3.409-5.007 8.526-15.507" transform="translate(250.7109 128.0747)"/><path d="m0 0 .433-3.004 2.569-2.721 5.386-5.874 8.748-8.968 9.364-10.687 11.962-12.705 8.944-10.089 9.81-10.275 8.944-7.548 1.286-1.009 13.863-9.566" transform="translate(167.4731 207.9419)"/></g><path d="m0 0-5.115-8.258" style="fill:none;stroke:#fff;stroke-width:4;stroke-linecap:round;stroke-linejoin:round;stroke-miterlimit:10" transform="translate(227.876 93.9966)"/><g style="fill:none;stroke:#fff;stroke-width:4;stroke-linecap:round;stroke-linejoin:round;stroke-miterlimit:10;clip-path:url(#K)"><path d="m0 0 39.943-23.764 24.872-14.161 18.112-10.835 10.453-6.277 16.854-9.977.224-.709 11.235-22.268 7.902-15.024 8.561-16.286" transform="translate(206.9971 5.9282)"/><path d="m0 0 20.384-12.864 18.782-11.097" transform="translate(167.831 29.8891)"/><path d="m0 0 2.571 3.736 6.177 8.968 12.158 18.795 1.929 2.579 5.31 7.547 5.562 5.867" transform="translate(227.876 93.9966)"/></g><path d="m0 0 3.111 3.39 3.382 3.1 1.313 1.197 5.115 4.11 5.926 3.399 3.382 2.018 2.626 1.569 1.845 1.532 2.851 2.317 4.696 5.567 3.633 5.979 3.186 6.277 1.063 2.018 3.633 4.11 2.991 1.308 1.286 1.27 2.124 2.691 2.767 3.998" style="fill:none;stroke:#fff;stroke-width:4;stroke-linecap:round;stroke-linejoin:round;stroke-miterlimit:10" transform="translate(167.831 29.8891)"/><path d="m0 0-17.497-17.936" style="fill:none;stroke:#fff;stroke-width:4;stroke-linecap:round;stroke-linejoin:round;stroke-miterlimit:10" transform="translate(143.6631 152.437)"/><g clip-path="url(#L)"><path d="m0 0-2.091-1.939-15.601-14.465-16.631-15.245-10.649-9.716-11.738-10.836-17.693-17.787" style="fill:none;stroke:#fff;stroke-width:4;stroke-linecap:round;stroke-linejoin:round;stroke-miterlimit:10" transform="translate(211.665 193.0923)"/></g><path d="m0 0-11.516-11.396-15.149-14.685-10.425-10.537-10.453-10.425" style="fill:none;stroke:#fff;stroke-width:4;stroke-linecap:round;stroke-linejoin:round;stroke-miterlimit:10" transform="translate(135.334 121.0864)"/><g style="fill:none;stroke:#fff;stroke-width:4;stroke-linecap:round;stroke-linejoin:round;stroke-miterlimit:10;clip-path:url(#M)"><path d="m0 0 3.468 1.453 20.345 2.163 20.263 2.13 21.326 3.998 24.378 7.465 20.426 10.059" transform="translate(248.6426 -15.5112)"/><path d="m0 0-6.588 6.732-7.575 8.931-18.754 21.672-8.329 8.145-2.236 2.391-19.285 20.813" transform="translate(150.5581 5.3598)"/><path d="m0 0 .867 1.42.195 1.046-.195.972-.643 1.121-1.705 2.279-1.929 2.167-7.239 7.099-15.568 15.395-17.692 18.123-5.562 5.418-3.634 3.55-5.534 5.829-2.767 3.026-8.524 8.52-6.205 6.128-7.737 8.636" transform="translate(213.5932 76.4722)"/><path d="m0 0-20.638 15.281-13.564 14.528" transform="translate(184.7602 -24.4487)"/><path d="m0 0 9.333-9.794 2.954-3.322 6.624-6.916 24.017-20.29 18.366-14.124 10.693-9.152 8.956-6.938" transform="translate(254.1875 173.1382)"/><path d="m0 0-1.699-1.686-15.546-15.428-15.568-15.395" transform="translate(223.1797 181.0972)"/><path d="m0 0 14.729-7.548 15.569-8.556 21.102-11.546" transform="translate(222.7607 85.7388)"/></g><path d="m0 0-1.928-2.018" style="fill:none;stroke:#fff;stroke-width:4;stroke-linecap:round;stroke-linejoin:round;stroke-miterlimit:10" transform="translate(137.2622 123.104)"/><g clip-path="url(#N)"><path d="m0 0-26.44-21.073-20.04-15.992-16.435-12.816-9.168-6.986-3.633-.972-33.037-3.026-28.788-2.392-11.739-1.158" style="fill:none;stroke:#fff;stroke-width:4;stroke-linecap:round;stroke-linejoin:round;stroke-miterlimit:10" transform="translate(15.289 13.3257)"/></g><path d="m0 0 3.737 3.042" style="fill:none;stroke:#fff;stroke-width:4;stroke-linecap:round;stroke-linejoin:round;stroke-miterlimit:10" transform="translate(15.289 13.3257)"/><path d="m0 0 3.697 3.008" style="fill:none;stroke:#fff;stroke-width:4;stroke-linecap:round;stroke-linejoin:round;stroke-miterlimit:10" transform="translate(38.0322 31.8403)"/><g style="fill:none;stroke:#fff;stroke-width:4;stroke-linecap:round;stroke-linejoin:round;stroke-miterlimit:10;clip-path:url(#O)"><path d="m0 0-9.467-1.394-.712-.986-9.897-13.722-1.063-1.569-7.699-11.109-7.721-10.081-10.318-14.312-7.521-10.533-16.84-24.299-9.377-14.038-14.506-20.364-20.487-27.65-11.069-15.692-11.963-15.806" transform="translate(333.6738 171.6772)"/><path d="m0 0-3.582-4.895-11.823-16.145-18.461-25.211-28.845-39.394-27.359-37.363-1.702-2.324-24.278-33.16-38.979-53.231" transform="translate(338.7129 107.4966)"/><path d="m0 0 16.951 21.536 14.283 19.953 16.211 22.643 11.207 16.389 7.771 11 11.546 16.586 10.797 16.628 7.719 10.014 7.27 9.114 2.015 1.879 3.978 1.144" transform="translate(226.7158 -6.0435)"/><path d="m0 0-31.172-30.028-6.82-6.468-11.806-11.285-17.692-18.235-13.221-12.555-2.767-2.428-6.705-6.356-2.909-2.762-5.758-5.418-5.954-6.128-10.229-10.388-9.811-9.117-4.919-4.559-.419-.597-6.624-6.128-14.925-13.975" transform="translate(292.1797 209.6343)"/><path d="m0 0 11.516 11.617 8.105 7.178 5.534 5.717 4.852 5.676 3.03 4.563 2.396 7.077.399 4.469-.438 6.315-1.918 12.428" transform="translate(261.583 141.4888)"/><path d="m0 0-31.053 27.232-1.031 2.623-.402 2.313-.383 15.9" transform="translate(99.3066 159.313)"/></g><path d="m0 0-19.813-17.812-1.093-.983-2.348-1.905-16.323-13.238-6.485-5.257" style="fill:none;stroke:#fff;stroke-width:4;stroke-linecap:round;stroke-linejoin:round;stroke-miterlimit:10" transform="translate(87.791 74.0434)"/><path d="m0 0-8.832 8.855-10.146 8.557-9.168 7.697-6.819 5.418-3.215 4.26-2.766 4.708" style="fill:none;stroke:#fff;stroke-width:4;stroke-linecap:round;stroke-linejoin:round;stroke-miterlimit:10" transform="translate(87.791 74.0434)"/><path d="m0 0 5.114 4.409 7.882 8.968 8.106 9.565" style="fill:none;stroke:#fff;stroke-width:4;stroke-linecap:round;stroke-linejoin:round;stroke-miterlimit:10" transform="translate(68.8135 91.4556)"/><g clip-path="url(#P)"><path d="m0 0 1.286-1.121.766-.774 17.15-17.349 2.348-2.279 6.819-7.249 9.168-9.715.866-1.121 25.214-22.985 17.888-16.44 18.623-15.608 3.359-5.843 3.055-6.286 1.331-5.851 1.386-11.303" style="fill:none;stroke:#fff;stroke-width:4;stroke-linecap:round;stroke-linejoin:round;stroke-miterlimit:10" transform="translate(223.1797 181.0972)"/></g><path d="m0 0-2.029 2.328-3.609 4.872-2.766 4.185-4.053 5.567-.643.972-11.515 12.704-2.768 2.69-7.658 7.847-24.121 23.951-4.025 4.559-9.614 9.976-5.115 4.858" style="fill:none;stroke:#fff;stroke-width:4;stroke-linecap:round;stroke-linejoin:round;stroke-miterlimit:10" transform="translate(167.831 29.8891)"/><path d="m0 0 9.168 9.978" style="fill:none;stroke:#fff;stroke-width:4;stroke-linecap:round;stroke-linejoin:round;stroke-miterlimit:10" transform="translate(89.915 114.3979)"/><g clip-path="url(#Q)"><path d="m0 0 5.88 3.24" style="fill:none;stroke:#fff;stroke-width:4;stroke-linecap:round;stroke-linejoin:round;stroke-miterlimit:10" transform="translate(64.6377 -5.1587)"/></g><path d="m0 0-1.705-2.579-1.286-3.4-.419-1.719v-4.408l.838-3.439 1.063-1.569" style="fill:none;stroke:#fff;stroke-width:4;stroke-linecap:round;stroke-linejoin:round;stroke-miterlimit:10" transform="translate(82.6763 139.6206)"/><g clip-path="url(#R)"><path d="m0 0 10.425 14.896 12.801 18.589 14.087 20.143 11.291 16.978 5.982 7.551" style="fill:none;stroke:#fff;stroke-width:4;stroke-linecap:round;stroke-linejoin:round;stroke-miterlimit:10" transform="translate(113.2451 -48.2681)"/></g><path d="m0 0 2.543-2.354 6.205-5.754" style="fill:none;stroke:#fff;stroke-width:4;stroke-linecap:round;stroke-linejoin:round;stroke-miterlimit:10" transform="translate(81.167 122.5063)"/><g clip-path="url(#S)"><path d="m0 0 17.916-28.659 2.795-4.26 5.73-9.864 6.848-11.098 5.101-8.082 6.833-11.758 5.339-8.669 4.471-7.286 10.007-18.234 5.562-12.106 5.917-13.103 4.955-10.996 4.891-7.697" style="fill:none;stroke:#fff;stroke-width:4;stroke-linecap:round;stroke-linejoin:round;stroke-miterlimit:10" transform="translate(-81.7529 112.2681)"/></g><path d="m0 0 2.728-.464 5.277-1.674 5.039-3.344 5.392-5.257 11.274-11.8" style="fill:none;stroke:#fff;stroke-width:4;stroke-linecap:round;stroke-linejoin:round;stroke-miterlimit:10" transform="translate(20.7676 142.6548)"/><g clip-path="url(#T)"><path d="m0 0-23.889 1.86" style="fill:none;stroke:#fff;stroke-width:4;stroke-linecap:round;stroke-linejoin:round;stroke-miterlimit:10" transform="translate(20.7676 142.6548)"/></g><path d="m0 0 2.116-3.637" style="fill:none;stroke:#fff;stroke-width:4;stroke-linecap:round;stroke-linejoin:round;stroke-miterlimit:10" transform="translate(50.478 120.1157)"/><g style="fill:none;stroke:#f9b6ac;stroke-width:4;stroke-linejoin:round;stroke-miterlimit:10;clip-path:url(#U)"><path d="m0 0 4.318-12.188 5.423-13.246 7.015-11.695 6.205-8.407 11.516-13.824 13.639-14.834 20.04-22.232 22.594-22.175" stroke-linecap="round" transform="translate(4.4863 58.3013)"/><path d="m0 0-22.81 22.515-12.98 14.034-5.338 6.987-7.351 11.722-7.918 15.297-5.518 15.536-2.887 13.604" stroke-linecap="round" transform="translate(71.3428 -24.3443)"/><path d="m0 0 .664 3.309 1.017 7.653" transform="translate(23.6948 143.187)"/><path d="m0 0 .422 4.775 1.199 17.447.722 5.496" stroke-linecap="round" transform="translate(25.376 154.1489)"/><path d="m0 0-2.862-7.553-1.68-5.257-1.656-6.004" transform="translate(.6323 164.563)"/></g><path d="m0 0 19.006 15.473" style="fill:none;stroke:#fff;stroke-width:4;stroke-linecap:round;stroke-linejoin:round;stroke-miterlimit:10" transform="translate(19.0264 16.3677)"/><path d="m0 0-.643 7.847-.106 21.343" fill="none" stroke="#fff" stroke-linejoin="round" stroke-miterlimit="10" stroke-width="4" transform="translate(16.7705 75.6128)"/><g font-family="Museo Sans 500"><text font-size="4" transform="matrix(1 0 0 -1 52.6335 151.8623)"><tspan x="0 2.96 5.352 7.764 9.868 10.864 13.276 14.088 15.116 18.076 20.572001 22.983999 25.375999 26.808001 28.6" y="0">Dunkin' Donuts </tspan><tspan x="8.476 11.364 13.584 15.996 17.427999 19.648001" y="5">Center</tspan></text><text fill="#404040" font-size="3.99999" transform="matrix(.71360169 .70055166 .70055166 -.71360169 127.0924 111.2224)"><tspan x="0 4.10399 7.015984 9.599978 13.023969 14.587965 18.015957 21.45595 24.187943 27.871935 31.299927 32.727924 35.311916" y="0">WASHINGTON ST</tspan></text><text fill="#404040" font-size="4.000039" transform="matrix(.7083931 -.70581812 -.70581812 -.7083931 116.6113 85.2942)"><tspan x="0 2.692026 6.556064 9.384091 10.948107 13.912135 16.604162 18.032175 20.616201" y="0">EMPIRE ST</tspan></text><text fill="#404040" font-size="3.999996" transform="matrix(.67067566 -.74175074 -.74175074 -.67067566 93.5186 66.0297)"><tspan x="0 3.439997 6.403994 9.095991 11.787989 15.215985 17.907982 19.335981 21.919979" y="0">GREENE ST</tspan></text><text fill="#404040" font-size="4.000006" transform="matrix(.69539894 -.7186239 -.7186239 -.69539894 130.9832 100.3044)"><tspan x="0 2.912005 5.848009 9.532015 12.496019 15.924025 17.352026 19.936031" y="0">ABORN ST</tspan><tspan x="-2.548004 .036 3.464005 7.136011 11.328017 12.75602 15.340023" y="-16.484024">SNOW ST</tspan></text><text fill="#404040" font-size="3.99999" transform="matrix(.71360169 .70055166 .70055166 -.71360169 162.6672 51.2042)"><tspan x="0 3.287992 6.711984 9.623978 12.45197 15.143964 17.659958 19.087955 21.671949" y="0">CHAPEL ST</tspan></text><text fill="#404040" font-size="4.000028" transform="matrix(.81114438 .58484595 .58484595 -.81114438 169.6543 30.9719)"><tspan x="0 4.192029 6.884048 9.636066 12.572087 16.256113 18.84013 21.424149 24.116167 26.888186 28.316196 30.900213" y="0">WEYBOSSET ST</tspan></text><text fill="#404040" font-size="3.999983" transform="matrix(.67205287 -.74050316 -.74050316 -.67205287 190.95 146.1377)"><tspan x="0 3.311986 6.739971 8.303965 11.987948 15.415935 16.843927 19.427917" y="0">UNION ST</tspan></text><text fill="#404040" font-size="3.999988" transform="matrix(.7481523 -.66352704 -.66352704 -.7481523 201.6801 114.875)"><tspan x="0 3.087991 5.403984 7.895976 11.559964 14.051957 17.279947 20.367937 22.85993 24.087925 26.471918" y="0">CLEMENCE ST</tspan></text><text fill="#404040" font-size="3.999987" transform="matrix(.70457726 -.70962728 -.70962728 -.70457726 157.0708 136.5274)"><tspan x="0 3.863988 6.603979 9.37597 12.799959 15.49195 19.683937 22.267929 25.951916 29.379906 30.807901 33.391891" y="0">MATHEWSON ST</tspan></text><text fill="#404040" font-size="4.00001" transform="matrix(.8530228 .52187365 .52187365 -.8530228 55.3173 121.0682)"><tspan x="0 2.936008 5.900015 9.568025 12.480032 15.827641 19.931652 22.655659" y="0">BROADWAY</tspan></text><text fill="#404040" font-size="4.000039" transform="matrix(.7083931 -.70581812 -.70581812 -.7083931 30.1968 138.675)"><tspan x="0 2.740027 5.512054 9.704095 12.396121 14.912146 17.428169 20.012196 21.440208 24.232237 27.160265" y="0">ATWELLS AVE</tspan></text><text fill="#404040" font-size="4.000026" transform="matrix(.61214596 -.79074479 -.79074479 -.61214596 45.2154 28.5134)"><tspan x="0 2.484016 5.448036 8.360055 11.788077 14.304094 15.868105 19.296127 20.724136 23.308153" y="0">FRANLIN ST</tspan></text><text fill="#404040" font-size="4.000029" transform="matrix(.72779473 .68579503 .68579503 -.72779473 158.6301 78.2565)"><tspan x="0 4.19203 6.88405 9.468068 12.240088 16.104116 17.668127 21.096153 23.680172 26.452192 29.144211 32.108231 33.536243 36.120262" y="0">WESTMINSTER ST</tspan></text><text fill="#404040" font-size="3.999932" transform="matrix(.84686433 -.531809 -.531809 -.84686433 173.8159 24.3888)"><tspan x="0 3.287944 6.711886 9.403841 11.987797 14.75975 18.187693 21.499636 24.271589 25.699566 28.283522" y="0">CHESTNUT ST</tspan></text><text fill="#404040" font-size="4.000021" transform="matrix(.6579965 .75302099 .75302099 -.6579965 74.6261 94.516)"><tspan x="0 2.484013 6.168033 9.48005 12.908069 15.507683 18.419699 19.983706 23.411724 24.839733 27.423746" y="0">FOUNTAIN ST</tspan></text></g><g clip-path="url(#V)"><text fill="#404040" font-family="Museo Sans 500" font-size="3.99996" transform="matrix(.7744327 .63265629 .63265629 -.7744327 33.6476 26.4379)"><tspan x="0 4.103959 7.01593 9.599904 13.02387 14.587855 18.015821 21.455786 24.187759 27.871723 31.299688 32.727673 35.311649" y="0">WASHINGTON ST</tspan></text></g><text fill="#404040" font-family="Museo Sans 500" font-size="4.000018" transform="matrix(.56139748 .82754629 .82754629 -.56139748 230.1831 94.9137)"><tspan x="0 4.192019 6.884031 9.636044 12.572057 16.256073 18.840084 21.424095 24.116108 26.888121 28.316128 30.900139" y="0">WEYBOSSET ST</tspan></text><g clip-path="url(#W)"><path d="m0 0c.79-.241 1.628-.371 2.497-.371s1.707.13 2.497.371c.79-.241 1.629-.371 2.497-.371.869 0 1.707.13 2.497.371 1.152-1.456 1.84-3.296 1.84-5.296 0-4.133-2.935-7.58-6.834-8.371-3.899.791-6.833 4.238-6.833 8.371 0 2 .687 3.84 1.839 5.296" fill="#fff" transform="translate(14.7641 42.6919)"/><path d="m0 0c.79-.241 1.628-.371 2.497-.371s1.707.13 2.497.371c.79-.241 1.629-.371 2.497-.371.869 0 1.707.13 2.497.371 1.152-1.456 1.84-3.296 1.84-5.296 0-4.133-2.935-7.58-6.834-8.371-3.899.791-6.833 4.238-6.833 8.371 0 2 .687 3.84 1.839 5.296" fill="#fff" transform="translate(14.7641 42.6919)"/><path d="m0 0c0 .737.096 1.452.276 2.133h12.546c.18-.681.276-1.396.276-2.133 0-3.99-2.807-7.322-6.549-8.117-3.741.795-6.549 4.127-6.549 8.117" fill="#003f87" transform="translate(13.2095 37.4272)"/><path d="m0 0c.283.92.717 1.771 1.272 2.525.765-.213 1.571-.328 2.402-.328.88 0 1.73.127 2.533.366.803-.239 1.653-.366 2.533-.366.831 0 1.637.115 2.402.328.555-.754.989-1.605 1.272-2.525z" fill="#af1e2d" transform="translate(13.5513 39.8442)"/><g fill="#fff"><path d="m0 0c0-.317-.061-.609-.183-.875-.122-.267-.293-.499-.514-.697-.221-.199-.483-.353-.786-.463-.303-.111-.636-.166-.998-.166-.25 0-.495.028-.736.085-.241.056-.46.136-.658.238l.441.799c.12-.063.275-.112.468-.149s.394-.055.603-.055c.204 0 .395.032.574.097.178.066.334.155.467.268.134.113.237.248.311.404.073.156.11.327.11.514 0 .142-.027.272-.08.391-.055.119-.128.224-.222.314-.093.091-.201.162-.322.213-.122.051-.254.077-.396.077-.102 0-.191-.009-.267-.026-.077-.017-.149-.048-.217-.093-.068-.046-.137-.106-.204-.184-.068-.076-.145-.173-.23-.293l-.901.255.145 2.942h3.272v-.902h-2.397l-.059-.934c.21.061.374.104.493.127.119.022.249.034.391.034.26 0 .505-.051.735-.153.229-.102.431-.241.603-.416.173-.176.309-.38.408-.613.1-.232.149-.478.149-.739m-5.897 1.955c0 .108-.029.212-.085.315-.057.101-.132.189-.226.263-.093.073-.202.133-.327.179-.125.045-.257.067-.399.067s-.274-.021-.396-.063c-.121-.043-.229-.101-.322-.175-.094-.073-.168-.161-.222-.263-.053-.102-.08-.21-.08-.323s.027-.22.08-.319c.054-.099.128-.186.222-.259.093-.073.201-.132.322-.174.122-.043.254-.064.396-.064s.276.021.403.064c.128.042.239.101.332.174.094.073.167.16.221.259s.081.206.081.319m.9-.077c0-.391-.052-.78-.157-1.168-.105-.389-.253-.761-.446-1.118-.192-.357-.425-.689-.697-.994-.272-.306-.572-.573-.901-.799l-.433.764c.17.136.321.268.454.396.134.128.254.259.362.395.107.136.207.281.297.434.091.152.179.322.264.51-.165-.028-.291-.049-.379-.06s-.188-.017-.301-.017c-.267 0-.517.046-.753.136-.235.09-.44.214-.616.37s-.314.339-.416.552c-.102.212-.153.438-.153.676 0 .243.051.472.153.684.102.213.239.397.412.552.173.157.377.28.612.371.235.09.489.135.761.135s.527-.047.765-.14c.237-.093.443-.221.616-.382.173-.162.308-.353.407-.574.1-.221.149-.462.149-.723" transform="translate(24.1943 34.7544)"/><path d="m0 0v1.424h.668v-.2h-.464v-.359h.295v-.196h-.295v-.47h.52v-.199zm-.454 1.234v-1.234h-.205v1.234h-.259v.19h.723v-.19zm-1.009-.235-.1-.41h.204zm.255-.999-.1.389h-.306l-.093-.389h-.206l.354 1.424h.2l.354-1.424zm-1.048 1.234v-1.234h-.206v1.234h-.259v.19h.723v-.19zm-.593-.845c0-.058-.01-.113-.03-.162-.021-.051-.049-.094-.085-.131s-.078-.067-.125-.088c-.048-.023-.099-.033-.154-.033-.063 0-.118.011-.168.036-.049.023-.091.056-.125.097s-.06.089-.079.143c-.018.054-.027.109-.027.168h.199c0-.03.004-.06.012-.089.008-.028.02-.055.036-.078s.037-.042.062-.057c.024-.013.054-.021.09-.021.027 0 .053.006.077.017.025.011.046.027.064.047s.032.043.042.069c.011.026.016.053.016.082 0 .041-.008.078-.025.109-.017.032-.047.064-.089.097-.008.007-.01.01-.009.011s-.002.005-.013.012c-.009.007-.03.021-.062.042s-.084.055-.156.105c-.058.04-.102.086-.131.139s-.043.112-.043.175c0 .051.009.099.028.144.018.045.044.084.077.118s.071.06.115.079.092.029.143.029.098-.01.141-.027c.043-.019.081-.044.112-.077.032-.033.058-.072.077-.116.019-.046.029-.096.03-.15h-.195c-.002.05-.019.09-.051.119-.031.031-.069.045-.114.045-.047 0-.086-.015-.119-.047-.033-.031-.049-.07-.049-.117 0-.035.009-.064.028-.089.018-.024.054-.051.106-.081.137-.079.237-.16.3-.242s.094-.175.094-.278m-1.161.654c0 .056-.017.1-.051.132s-.078.049-.133.049h-.21v-.359h.21c.059 0 .105.015.136.045.032.03.048.075.048.133m-.011-1.043-.188.669h-.195v-.669h-.204v1.424h.424c.056 0 .106-.01.152-.028s.086-.044.119-.077c.033-.032.059-.072.076-.12.018-.047.026-.099.026-.156 0-.085-.016-.157-.05-.217-.034-.059-.085-.101-.153-.127l.203-.699zm-1.549 0v1.424h.669v-.2h-.465v-.359h.295v-.196h-.295v-.47h.52v-.199zm-.453 1.234v-1.234h-.206v1.234h-.259v.19h.723v-.19zm-.818-1.234-.439.954v-.954h-.204v1.424h.204l.39-.855v.855h.203v-1.424zm-1.157 1.424h.199v-1.424h-.199z" transform="translate(23.3955 40.1294)"/></g></g><text fill="#404040" font-family="Museo Sans 500" font-size="4.000003" transform="matrix(.82014933 -.57214953 -.57214953 -.82014933 209.6549 67.7247)"><tspan x="0 2.964002 4.528004 7.816007 11.240009 15.104012 18.788015 22.216019 25.576021 27.004023 29.588024" y="0">RICHMOND ST</tspan></text><text fill="#404040" font-family="Museo Sans 500" font-size="3.999992" transform="matrix(.60480115 .79637652 .79637652 -.60480115 219.1798 20.6951)"><tspan x="0 2.827995 4.391992 7.819985 10.51198 11.939978 14.523973" y="0">PINE ST</tspan></text><text fill="#404040" font-family="Museo Sans 500" font-size="4.000021" transform="matrix(.80047075 -.59937182 -.59937182 -.80047075 228.0281 138.9004)"><tspan x="0 2.692014 6.052032 9.34405 12.096065 13.524072 16.108086" y="0">EDDY ST</tspan></text><text font-family="Museo Sans 500" font-size="4" transform="matrix(1 0 0 -1 223.0649 73.8848)"><tspan x="0 2.428 3.916 6.412 8.42 9.416 11.82 14.04 16.452 18.639999 20.860001" y="0">Providence </tspan><tspan x="-.032 2.396 4.616 6.116 7.46 9.956 11.456 15.112 16.108 18.52 20.892" y="5">Performing </tspan><tspan x="1.372 3.884 5.384 6.816 7.844 10.732 12.952 15.364 16.796 19.016001" y="10">Art Center</tspan></text><g clip-path="url(#X)"><path d="m0 0c3.344 0 6.054 2.711 6.054 6.054s-2.71 6.053-6.054 6.053-6.054-2.71-6.054-6.053 2.71-6.054 6.054-6.054" fill="#610712" transform="translate(149.8657 55.9106)"/><path d="m0 0v2.694l-1.023-2.694zm1.559-.168v-.464c0-.12-.056-.176-.168-.176h-.391v-1.135c0-.112-.064-.176-.168-.176h-.656c-.112 0-.176.064-.176.176v1.135h-1.871c-.104 0-.168.064-.168.176v.456c0 .072.016.144.04.216l1.407 3.382c.032.088.104.136.2.136h1.224c.104 0 .168-.064.168-.176v-3.382h.383c.112 0 .176-.057.176-.168" fill="#f79e91" transform="translate(150.1055 61.2456)"/><path d="m0 0c3.344 0 6.054 2.711 6.054 6.054s-2.71 6.053-6.054 6.053-6.054-2.71-6.054-6.053 2.71-6.054 6.054-6.054" fill="#610712" transform="translate(188.2627 113.1245)"/><path d="m0 0c0 .176-.104.271-.271.271h-.544c-.176 0-.272-.095-.272-.271v-1.416c0-.168.096-.271.272-.271h.544c.167 0 .271.103.271.271zm1 .128v-1.663c0-.561-.4-.96-.96-.96h-1.167c-.552 0-.96.399-.96.96v3.838c0 .559.408.959.96.959h1.143c.56 0 .96-.4.96-.959v-.449c0-.112-.064-.175-.168-.175h-.656c-.112 0-.176.063-.176.175v.329c0 .168-.096.271-.272.271h-.519c-.176 0-.272-.103-.272-.271v-1.272c.151.104.344.168.56.168h.567c.56 0 .96-.392.96-.951" fill="#f79e91" transform="translate(188.8061 118.7954)"/><path d="m0 0c3.344 0 6.054 2.711 6.054 6.054 0 3.344-2.71 6.054-6.054 6.054s-6.054-2.71-6.054-6.054c0-3.343 2.71-6.054 6.054-6.054" fill="#610712" transform="translate(166.6396 93.1977)"/><path d="m0 0v4.51l-.632-.304c-.12-.064-.208 0-.208.128v.495c0 .097.048.168.128.208l.904.416c.072.032.136.048.216.048h.415c.113 0 .176-.064.176-.176v-5.325c0-.111-.063-.176-.176-.176h-.655c-.104 0-.168.065-.168.176" fill="#f79e91" transform="translate(166.56 96.5893)"/><path d="m0 0c3.344 0 6.054 2.711 6.054 6.054 0 3.344-2.71 6.054-6.054 6.054s-6.054-2.71-6.054-6.054c0-3.343 2.71-6.054 6.054-6.054" fill="#610712" transform="translate(106.7041 99.7554)"/><path d="m0 0v1.144c0 .519.128.887.552 1.151l1.335.815c.168.105.192.216.192.369v.983c0 .168-.096.271-.264.271h-.551c-.168 0-.264-.103-.264-.271v-.744c0-.112-.064-.176-.176-.176h-.648c-.112 0-.176.064-.176.176v.864c0 .56.408.959.959.959h1.168c.56 0 .952-.399.952-.959v-1.248c0-.424-.121-.743-.616-1.047l-1.272-.767c-.151-.096-.191-.216-.191-.392v-.496h1.895c.111 0 .175-.056.175-.168v-.464c0-.12-.055-.176-.168-.176h-2.726c-.112 0-.176.065-.176.176" fill="#f79e91" transform="translate(105.1645 103.1264)"/><path d="m0 0c3.344 0 6.054 2.711 6.054 6.055 0 3.343-2.71 6.053-6.054 6.053s-6.054-2.71-6.054-6.053c0-3.344 2.71-6.055 6.054-6.055" fill="#610712" transform="translate(97.6484 90.8139)"/><path d="m0 0c.344-.128.56-.424.56-.84v-1.207c0-.56-.4-.96-.96-.96h-1.167c-.552 0-.952.4-.952.96v.856c0 .103.056.168.168.168h.656c.112 0 .176-.065.176-.168v-.737c0-.168.096-.271.264-.271h.551c.168 0 .264.103.264.271v1.248c0 .168-.096.272-.264.272h-.767c-.112 0-.176.064-.176.168v.471c0 .104.064.168.176.168h.767c.168 0 .264.104.264.281v.991c0 .168-.096.271-.264.271h-.551c-.168 0-.264-.103-.264-.271v-.528c0-.104-.064-.168-.176-.168h-.656c-.112 0-.168.064-.168.168v.648c0 .56.4.959.952.959h1.167c.56 0 .96-.399.96-.959v-.952c0-.415-.216-.711-.56-.839" fill="#f79e91" transform="translate(98.6279 96.9966)"/><path d="m0 0c3.344 0 6.054 2.711 6.054 6.054s-2.71 6.053-6.054 6.053-6.054-2.71-6.054-6.053 2.71-6.054 6.054-6.054" fill="#610712" transform="translate(183.1484 26.4995)"/><path d="m0 0v.735c0 .104.063.168.176.168h.655c.105 0 .168-.064.168-.168v-.616c0-.168.097-.271.272-.271h.543c.168 0 .273.103.273.271v1.695c0 .176-.105.272-.273.272h-.543c-.175 0-.272-.096-.272-.247v-.04c0-.112-.063-.176-.168-.176h-.655c-.113 0-.176.064-.176.176v2.782c0 .112.063.176.176.176h2.726c.113 0 .176-.056.176-.176l-.008-.464c0-.111-.064-.168-.175-.168h-1.896v-1.247c.145.128.328.192.56.192h.568c.56 0 .959-.392.959-.952v-1.942c0-.561-.399-.96-.959-.96h-1.168c-.552 0-.959.399-.959.96" fill="#f79e91" transform="translate(181.6055 30.6548)"/></g><g clip-path="url(#Y)"><g clip-path="url(#Z)"><g clip-path="url(#aa)"><path d="m0-.156h259.894v161.839h-259.894z" fill="none" stroke="#000"/></g><path d="m-9.291-1.188h278.476v170.098h-278.476z" fill="none" stroke="#000"/></g><path d="m0-.156h259.894v161.839h-259.894z" fill="none" stroke="#000"/></g><g clip-path="url(#ab)"><path d="m0-.156h259.894v161.839h-259.894z" fill="none" stroke="#000"/></g></g></svg>